<svg width="23" height="21" viewBox="0 0 23 21" fill="none" xmlns="http://www.w3.org/2000/svg">
<path d="M11.5067 2.55039C14.5812 2.55039 14.9453 2.56223 16.1544 2.60957C17.2781 2.65297 17.8849 2.81866 18.2894 2.95674C18.8243 3.13822 19.2109 3.35915 19.6109 3.71026C20.0154 4.06532 20.2627 4.40066 20.4694 4.87013C20.6267 5.22519 20.8155 5.76173 20.865 6.74407C20.9189 7.80925 20.9324 8.12881 20.9324 10.8233C20.9324 13.5218 20.9189 13.8414 20.865 14.9026C20.8155 15.8889 20.6267 16.4215 20.4694 16.7765C20.2627 17.246 20.0109 17.5853 19.6109 17.9364C19.2064 18.2915 18.8243 18.5084 18.2894 18.6899C17.8849 18.828 17.2736 18.9937 16.1544 19.0371C14.9408 19.0844 14.5767 19.0963 11.5067 19.0963C8.43228 19.0963 8.0682 19.0844 6.8591 19.0371C5.73539 18.9937 5.12859 18.828 4.72406 18.6899C4.18917 18.5084 3.80262 18.2875 3.40258 17.9364C2.99805 17.5813 2.75083 17.246 2.54407 16.7765C2.38675 16.4215 2.19797 15.8849 2.14852 14.9026C2.09459 13.8374 2.0811 13.5179 2.0811 10.8233C2.0811 8.12486 2.09459 7.80531 2.14852 6.74407C2.19797 5.75779 2.38675 5.22519 2.54407 4.87013C2.75083 4.40066 3.00254 4.06138 3.40258 3.71026C3.80711 3.3552 4.18917 3.13822 4.72406 2.95674C5.12859 2.81866 5.73989 2.65297 6.8591 2.60957C8.0682 2.56223 8.43228 2.55039 11.5067 2.55039ZM11.5067 0.731689C8.38284 0.731689 7.99179 0.743525 6.76471 0.790866C5.54211 0.838208 4.70158 1.01179 3.97342 1.26034C3.2138 1.52072 2.57104 1.86394 1.93277 2.4281C1.29001 2.9883 0.898964 3.55246 0.602306 4.21524C0.319132 4.8583 0.12136 5.59209 0.0674223 6.66517C0.0134845 7.74613 0 8.08936 0 10.8312C0 13.5731 0.0134845 13.9163 0.0674223 14.9933C0.12136 16.0664 0.319132 16.8042 0.602306 17.4433C0.898964 18.11 1.29001 18.6741 1.93277 19.2344C2.57104 19.7946 3.2138 20.1417 3.96893 20.3982C4.70158 20.6467 5.53762 20.8203 6.76021 20.8676C7.9873 20.915 8.37835 20.9268 11.5022 20.9268C14.6261 20.9268 15.0172 20.915 16.2443 20.8676C17.4669 20.8203 18.3074 20.6467 19.0356 20.3982C19.7907 20.1417 20.4335 19.7946 21.0717 19.2344C21.71 18.6741 22.1055 18.11 22.3977 17.4472C22.6809 16.8042 22.8786 16.0704 22.9326 14.9973C22.9865 13.9203 23 13.577 23 10.8352C23 8.0933 22.9865 7.75008 22.9326 6.67306C22.8786 5.59998 22.6809 4.86224 22.3977 4.22313C22.1145 3.55246 21.7235 2.9883 21.0807 2.4281C20.4424 1.86789 19.7997 1.52072 19.0446 1.26428C18.3119 1.01574 17.4759 0.842153 16.2533 0.794812C15.0217 0.743525 14.6306 0.731689 11.5067 0.731689Z" fill="white"/>
<path d="M11.5068 5.64337C8.24352 5.64337 5.59607 7.96705 5.59607 10.8312C5.59607 13.6954 8.24352 16.0191 11.5068 16.0191C14.77 16.0191 17.4174 13.6954 17.4174 10.8312C17.4174 7.96705 14.77 5.64337 11.5068 5.64337ZM11.5068 14.1964C9.3897 14.1964 7.67268 12.6894 7.67268 10.8312C7.67268 8.97306 9.3897 7.46602 11.5068 7.46602C13.6238 7.46602 15.3408 8.97306 15.3408 10.8312C15.3408 12.6894 13.6238 14.1964 11.5068 14.1964Z" fill="white"/>
<path d="M19.0311 5.43818C19.0311 6.10885 18.4108 6.64933 17.6512 6.64933C16.887 6.64933 16.2712 6.1049 16.2712 5.43818C16.2712 4.7675 16.8915 4.22702 17.6512 4.22702C18.4108 4.22702 19.0311 4.77145 19.0311 5.43818Z" fill="white"/>
</svg>
