<svg width="23" height="21" viewBox="0 0 23 21" fill="none" xmlns="http://www.w3.org/2000/svg">
<path d="M21.2975 0H1.69805C0.75918 0 0 0.64856 0 1.45042V18.6707C0 19.4725 0.75918 20.125 1.69805 20.125H21.2975C22.2363 20.125 23 19.4725 23 18.6746V1.45042C23 0.64856 22.2363 0 21.2975 0ZM6.82363 17.1495H3.40957V7.54294H6.82363V17.1495ZM5.1166 6.23403C4.02051 6.23403 3.13555 5.45969 3.13555 4.50454C3.13555 3.54939 4.02051 2.77505 5.1166 2.77505C6.2082 2.77505 7.09316 3.54939 7.09316 4.50454C7.09316 5.45576 6.2082 6.23403 5.1166 6.23403ZM19.5994 17.1495H16.1898V12.4799C16.1898 11.3675 16.1674 9.93279 14.4154 9.93279C12.641 9.93279 12.3715 11.1474 12.3715 12.4012V17.1495H8.96641V7.54294H12.2367V8.85579H12.2816C12.7354 8.1011 13.8494 7.30317 15.507 7.30317C18.9615 7.30317 19.5994 9.29209 19.5994 11.8785V17.1495Z" fill="white"/>
</svg>
