<svg width="23" height="20" viewBox="0 0 23 20" fill="none" xmlns="http://www.w3.org/2000/svg">
<path d="M7.23557 20C15.9127 20 20.66 12.3046 20.66 5.63322C20.66 5.41688 20.6555 5.19574 20.6465 4.9794C21.57 4.26466 22.367 3.37935 23 2.36507C22.1399 2.7746 21.2267 3.04206 20.2917 3.15831C21.2762 2.52672 22.0134 1.53451 22.3666 0.365627C21.4404 0.953083 20.4274 1.36748 19.3712 1.59106C18.6596 0.78181 17.7186 0.24599 16.6939 0.0664421C15.6691 -0.113105 14.6176 0.0736207 13.702 0.597751C12.7864 1.12188 12.0576 1.95422 11.6283 2.96609C11.199 3.97796 11.0931 5.11299 11.3271 6.1957C9.45156 6.09498 7.61677 5.57358 5.94165 4.6653C4.26653 3.75702 2.78846 2.48213 1.60326 0.923299C1.00088 2.03477 0.816554 3.35001 1.08774 4.6017C1.35892 5.85339 2.06527 6.94762 3.06322 7.66199C2.31402 7.63654 1.58123 7.42066 0.925391 7.03221V7.09471C0.924719 8.26111 1.30151 9.39178 1.99171 10.2945C2.68192 11.1972 3.64293 11.8163 4.71141 12.0464C4.01739 12.2497 3.28898 12.2793 2.58256 12.133C2.88406 13.1361 3.47067 14.0135 4.26053 14.6426C5.05039 15.2718 6.00407 15.6213 6.9885 15.6425C5.31724 17.0474 3.25275 17.8095 1.12754 17.8058C0.75065 17.8052 0.374132 17.7805 0 17.7318C2.15899 19.2141 4.67047 20.0014 7.23557 20Z" fill="white"/>
</svg>
