<svg width="26" height="33" viewBox="0 0 26 33" fill="none" xmlns="http://www.w3.org/2000/svg">
<path fill-rule="evenodd" clip-rule="evenodd" d="M21.5126 3.85363C23.6803 6.2295 24.9859 9.38027 25.1875 12.7236C25.2949 14.5527 25.048 16.3862 24.463 18.1045C23.89 19.8166 22.9567 21.4303 21.6895 22.9015L13.3644 32.565C13.2813 32.6615 13.1654 32.7164 13.0439 32.7164C12.9225 32.7164 12.8063 32.6615 12.7232 32.565L4.39833 22.9015C3.13088 21.4303 2.19791 19.8166 1.62461 18.1045C1.03957 16.3862 0.793011 14.5527 0.900111 12.7236C1.102 9.38027 2.40724 6.2295 4.57502 3.85363C6.81868 1.40068 9.86587 0.0222168 13.0439 0.0222168C16.2217 0.0222168 19.2689 1.40068 21.5126 3.85363ZM4.61912 12.6025C4.61912 17.794 8.39854 22.0177 13.0439 22.0177C17.6893 22.0177 21.4688 17.7936 21.4688 12.6022C21.4688 7.41073 17.6893 3.18703 13.0439 3.18703C8.39854 3.18703 4.61912 7.41104 4.61912 12.6025ZM5.49878 12.6022C5.49878 7.93938 8.88331 4.14573 13.0439 4.14573C17.2042 4.14573 20.589 7.93969 20.589 12.6025C20.589 17.2656 17.2042 21.0589 13.0439 21.0589C8.88331 21.0589 5.49878 17.265 5.49878 12.6022ZM12.3354 15.3834L17.0132 10.5144V10.5134C17.1887 10.3305 17.195 10.0272 17.0272 9.83558C16.8594 9.64428 16.5811 9.63741 16.4055 9.82029L12.0388 14.3661L9.68943 11.8057C9.5786 11.6819 9.41566 11.6325 9.26217 11.6765C9.10897 11.7206 8.98898 11.851 8.94889 12.0183C8.90851 12.1852 8.95376 12.3631 9.06744 12.4836L11.7206 15.3753C11.8896 15.5598 12.1625 15.5632 12.3354 15.3834Z" fill="url(#paint0_linear_93_450)"/>
<defs>
<linearGradient id="paint0_linear_93_450" x1="13.0438" y1="-1.43142" x2="13.0438" y2="32.7164" gradientUnits="userSpaceOnUse">
<stop offset="0.9999" stop-color="#523A6D"/>
<stop offset="1" stop-color="#FF9D8C"/>
</linearGradient>
</defs>
</svg>
