<svg width="23" height="21" viewBox="0 0 23 21" fill="none" xmlns="http://www.w3.org/2000/svg">
<path d="M22.7709 5.08926C22.7709 5.08926 22.5463 3.10957 21.8545 2.24029C20.9785 1.09622 19.9992 1.09061 19.55 1.02332C16.3336 0.731689 11.5045 0.731689 11.5045 0.731689H11.4955C11.4955 0.731689 6.66641 0.731689 3.45 1.02332C3.00078 1.09061 2.02148 1.09622 1.14551 2.24029C0.453711 3.10957 0.233594 5.08926 0.233594 5.08926C0.233594 5.08926 0 7.41666 0 9.73846V11.9144C0 14.2362 0.229102 16.5636 0.229102 16.5636C0.229102 16.5636 0.453711 18.5433 1.14102 19.4126C2.01699 20.5567 3.16699 20.5174 3.6791 20.6408C5.5209 20.8595 11.5 20.9268 11.5 20.9268C11.5 20.9268 16.3336 20.9156 19.55 20.6296C19.9992 20.5623 20.9785 20.5567 21.8545 19.4126C22.5463 18.5433 22.7709 16.5636 22.7709 16.5636C22.7709 16.5636 23 14.2418 23 11.9144V9.73846C23 7.41666 22.7709 5.08926 22.7709 5.08926ZM9.12363 14.5559V6.4857L15.3363 10.5348L9.12363 14.5559Z" fill="white"/>
</svg>
